<?xml version="1.0" encoding="UTF-8"?>
<svg id="Capa_1" xmlns="http://www.w3.org/2000/svg" version="1.1" viewBox="0 0 615.1 192.9">
  <!-- Generator: Adobe Illustrator 29.0.0, SVG Export Plug-In . SVG Version: 2.1.0 Build 186)  -->
  <defs>
    <style>
      .st0 {
        fill: #f5f3ef;
      }
    </style>
  </defs>
  <path class="st0" d="M430.9,14.8s-11.5,4.6-24.9,19.4-21.2,31.4-15.4,35.8c2.2,1.7,7.3,2,16.6-6.4,8.6-7.4,15.3-16.8,19.7-27.3,6-14.6,4.1-21.4,4.1-21.5M504.3,41.4c-14.9-7.6-25.8-17-37.1-22.8-10.8-5.6-17.8-7.9-26.5-6.7-1.2.2-2.4.5-3.6.9,0,0,4.5,15.4-13.4,41.2-18.1,26.2-34.6,26-39.3,18.8-4.9-7.6,1.4-23.1,12-36.8,11.1-14.4,30.5-26.3,30.5-26.3,0,0-6.2-3.8-21.4,4.8-14.9,8.4-40.4,28.4-64.1,62.1s-28.4,52.3-31.8,66.9-.3,30.3,15.9,30.3,35.1-24.7,40.4-33.3c9.9-16,16.3-40.5,2.9-37.2-6.6,1.7-12,9-15.4,16.1-2.1,4.5-3.8,9.3-4.9,14.2-4.7,1.9-9.1,4.5-13.1,7.6-4.5,3.3-8.6,7-12.5,11,0,0,0-11.7,9.4-30.6s26.4-27.5,36.1-28.3c8.7-.7,20.1,6.7,10.5,34s-38,60.5-67.8,60.9c-27.5.4-45.5-34.7-7.2-96C346,24.5,395.7,3.7,411.9,1.4s21.4,4.8,21.4,4.8c9.7-4,20.2-5.7,30.7-5.1,19.7,1.3,35,15.3,55.1,25.1-5.2,5-10.2,10.2-14.7,15.2M592.8,18.6c-13.7,8.8-32.6,16.7-50.7,15-4.6,4.8-9.5,10.2-14.5,16.2,31.5,6.2,59.1-13.3,73.8-29.9,5.3-6,9.9-12.6,13.7-19.7-6.7,7-14.2,13.1-22.3,18.3M550.9,107.3c.2-.4.4-.9.6-1.3-.2-1.5-1.4-2.6-2.9-2.8-3-.1-7.1.4-17.8,12.3-8.9,9.8-16.6,20.7-22.8,32.4-6.1,11.2-8.6,19.6-5.1,21.7,1.1.6,2.5.7,3.7.4,2.4-.6,5.1-2.8,9.2-7.6,1.9-2.2,4.1-5.4,6.6-8.9,7.1-9.7,24.9-40.1,28.5-46.2M439.4,120.2c1.8-4.7,4.1-13.9-.7-17.5-5.1-3.8-18.1,5.2-18.1,14.4,0,9.4,9.1,13.7,11.4,14.3,1.3.3,1.7.3,2.3-.7,2-3.4,3.7-6.9,5.1-10.5M429.6,137.4c-3.2-1.5-6.2-3.4-8.9-5.7-2.7-2.3-5-5-6.7-8.1-.2-.3-.4,0-.6.2s-1,1-7.9,11.1c-6.9,10.1-17.5,31.1-7.9,34.7,6.2,2.3,16.4-8.5,22-15.6,3.8-5,7.3-10.2,10.3-15.7.3-.6,0-.8-.3-.9M538.7,161.7c-2.6,4.2-5.6,12.2,3,7.2,10.5-6.1,25.5-28.8,25.5-28.8h6.8c-6.2,9.5-13.1,18.5-20.6,27-10.7,11.8-23.6,22.5-32.8,21.5-10.7-1.2-7.3-15.3-7.3-15.3,0,0-15.3,16.3-25.9,15.1-14.3-1.6-9.9-19.2-9.9-19.2,0,0-16.2,19.8-27.2,19.2-17.3-1-12.9-22-8.1-36.8,2.6-7.9,5-14.1,5-14.1,0,0-1.7.4-5.4,1-1.9.3-5.4.5-5.4.5,0,0-7.2,12.7-12.9,20.3s-30.2,33.9-44.6,28.6c-13.3-4.9-8.9-25.2-1.2-41.4,11.3-23.6,43.1-57.5,61.4-53,19,4.6.4,39.3.4,39.3,0,0,0,.1.2.2.4.1,1.4.2,3.7-.2,2.4-.5,4.7-1.2,7-2.1,0,0,19.1-40,40.2-66.2s63.2-71.2,79.7-60.3c4,2.7,2.2,11.9-3.2,23.1-2.5.8-4.9,1.5-7.5,2,3.6-6.6,6-12.2,6.8-16.1,2.5-13.5-29.1,15-51.6,45.6-13.6,18.5-25.7,38-36.1,58.4,4.1-2.5,8-5.3,11.6-8.3,10.1-8.3,19.6-17.3,28.6-26.7,8.7-8.9,16.8-18.3,24.4-28.1,2.4-.1,4.8-.4,7.2-.7-8.2,11.2-17.2,21.8-26.9,31.8-9,9.1-18.7,18.9-27.2,26-7.6,6.4-15.5,12.3-23.9,17.7,0,0-19.7,39.8-9,42.3,6.3,1.5,18.8-17.7,18.8-17.7,0,0,16.3-24.8,26.1-36,13.4-15.2,24.9-24,36.4-24.2,6.7-.1,10.7,7,10.7,7l3.2-4.9h19.4s-36.2,61.5-39.1,66.1M592.8,18.6c-13.7,8.8-32.6,16.7-50.7,15-4.6,4.8-9.5,10.2-14.5,16.2,31.5,6.2,59.1-13.3,73.8-29.9,5.4-6,9.9-12.6,13.7-19.7-6.7,7-14.2,13.1-22.3,18.3M320.4,48.8h-18.4l-10.4,16.9h18.5l10.4-16.9ZM233,107.1c7.9-10.8,29.5-48.5,29.5-48.5-.2-1.5-1.4-2.6-2.9-2.8-3-.1-8,.9-17.9,13.3s-17.6,22.3-23.3,32.6c-6.2,11.2-8.9,19.2-5.3,21.3,1.1.6,2.5.7,3.7.4,2.3-.6,5.3-2.9,9.4-7.6,1.9-2.2,4.1-5.2,6.7-8.7M134,56.1c-5.1-3.8-18.1,5.2-18.1,14.4,0,9.4,11.7,12.3,13.2,12.4.4,0,.9,0,1.3-.3.3-.2.5-.4.6-.7,1.4-2.7,2.6-5.5,3.7-8.3,1.8-4.7,4.1-13.9-.7-17.5M126.3,88.7c-3.5-1.1-6.9-2.6-10-4.6-3-2-5.5-4.7-7.1-7.9-.2-.3-.4,0-.6.2s-1.2,1.6-8.2,11.8-17.2,31-7.6,34.6c6.1,2.3,16.5-8.6,22.1-15.7,4.2-5.6,8.1-11.4,11.7-17.5.2-.6,0-.8-.3-.9M277,94.9h6.8s-33.9,49-53,46.7c-10.7-1.2-7.5-14.4-7.5-14.4,0,0-15,17.6-28.8,14-12.5-3.2-4.4-24-4.4-24-1.4.6-28.5,31.1-47.5,23.8-19.9-7.7-9.6-33.2-5.8-40.9,3.2-6.5,6.8-12.8,6.8-12.8,0,0-3.1.9-5,1.3s-4.8,1-4.8,1c0,0-9.4,15.3-15.2,22.9s-30.2,33.9-44.6,28.6-10.8-25.4-2.7-41.4c13.1-25.9,44.2-57.8,63-53,18.9,4.8,3.3,35.6,3.3,35.6,0,0,3.8.5,12.8-5.7,13-8.9,30.2-32.7,48.7-29.9,8.8,1.3,16.9,10.3,5.8,27.3-3.6,5.5-9.5,10.3-14.1,5.5-2.9-3-.4-8.5,2.6-12.2,2.4-3.1,6.1-4.8,10-4.6,0,0,3.1-7-4.7-6.9-6.3.1-22.3,14.8-31.4,29.7-8.3,13.7-20.8,36.9-8.2,42,11.6,4.7,33.5-21.4,43.7-35.1s33.4-44.7,52.8-45.9c6.7-.4,10.7,5.7,10.7,5.7l2.2-3.6h19.5s-36.6,61.2-39.5,65.8c-2.2,3.6-5.2,11.8,3,7.2s25.5-26.7,25.5-26.7M266.4,192.9c-14.3-9.9-31.5-14.9-48.9-14.3-9.6.3-18.4,5.1-23.9,12.9-7.4-12.9-22.1-20.9-44.8-20.7-36.7.4-73,17.3-101.8,17.3-27.6,0-47.7-17.3-47.1-48.2C1.2,85.9,46.9,37.2,81,15.3,100.7,2.7,117.1-1,127.8.2c7.8.9,17.3,9.9,11.3,23.3-8.7,19.5-20.8,17.9-20.4,8.6.2-6.1,4.3-9.9,7.3-12,1.9-1.3,5.3-1.7,7.1-1.8,1.7-1.5,3-12.1-11-8.6s-31,17.3-47.1,35.1-41.3,51.5-47.5,86.9c-2.9,16.4-1,46.3,37.9,46,33-.3,81.6-22,126.3-21.6,17.4.2,32.4,4.9,44.2,12.1,11.6,7.1,25.4,17.5,30.3,24.6"/>
</svg>