<?xml version="1.0" encoding="UTF-8"?>
<svg id="Capa_1" xmlns="http://www.w3.org/2000/svg" version="1.1" viewBox="0 0 800 800">
  <!-- Generator: Adobe Illustrator 29.0.0, SVG Export Plug-In . SVG Version: 2.1.0 Build 186)  -->
  <defs>
    <style>
      .st0 {
        fill: #06468e;
      }
    </style>
  </defs>
  <path class="st0" d="M733.3,404.2c0,184.1-149.2,333.3-333.3,333.3S66.7,588.3,66.7,404.2c0-184.1,149.2-333.3,333.3-333.3s333.3,149.2,333.3,333.3h0ZM504.7,493.2h-112.7l64-57c6.3-5.7,12.3-11.5,18.1-17.3,5.8-5.8,11-12.1,15.6-18.9,4.6-6.8,8.2-14.2,10.7-22,2.7-8.6,4-17.7,3.9-26.7.3-13-2.6-25.8-8.4-37.4-5.4-10.4-13-19.5-22.4-26.5-9.6-7.1-20.5-12.4-32-15.6-12.1-3.4-24.5-5.1-37.1-5.1-13,0-26,2-38.4,6.1-11.7,3.9-22.6,9.9-32.2,17.7-9.4,7.8-17.3,17.3-23.2,28-6.3,11.6-10.2,24.3-11.5,37.5l62.8,8.6c.8-11.1,5.1-21.7,12.3-30.2,13.9-14.4,36.5-15.4,51.7-2.4,6.3,6.3,9.7,15,9.3,23.9,0,8-2.1,15.8-6.2,22.6-4.6,7.3-10.1,14-16.4,19.9l-107.6,97.3v54.5h199.7v-56.9Z"/>
</svg>