<?xml version="1.0" encoding="UTF-8"?>
<svg id="Capa_1" xmlns="http://www.w3.org/2000/svg" version="1.1" viewBox="0 0 500 75">
  <!-- Generator: Adobe Illustrator 29.0.0, SVG Export Plug-In . SVG Version: 2.1.0 Build 186)  -->
  <defs>
    <style>
      .st0 {
        fill: #f5f3ef;
      }
    </style>
  </defs>
  <path class="st0" d="M452.9,43.2l4.8-14c2.6-7.8,3.8-11.2,4.6-14.2.9,3,1.8,6.2,4.5,14.1l4.6,14.1h-18.5ZM137.6,72.7h17v-27.5h10.7l15.3,27.5h20.5l-18.5-29c10.1-3,15.7-10.1,15.7-20.8S189.4,1.6,173.4,1.6h-35.8v71.1ZM170.1,31.5h-15.7V15.2h15.7c6,0,10.6,2.1,10.6,8.3s-4.6,8-10.6,8ZM72.2,72.7h54.3v-13.7h-37.3v-15.8h27.9v-13.7h-27.9v-14.1h37.3V1.6h-54.3v71.1ZM237.7,74.3c21.1,0,31-10.1,31-22.6s-10.2-20.1-25.4-22.3l-8.6-1.2c-5.8-.8-9.1-3.3-9.1-7.3s3.3-7.6,11.2-7.6,13,4.6,14.9,10.9l16.3-5.1c-2.8-10.6-12.2-19-31-19s-29.2,10.2-29.2,21.8,8.7,19.7,23.3,21.8l8.9,1.2c7.9,1.1,10.9,3.8,10.9,7.9s-4,8.3-13.1,8.3-15.5-6.9-16.8-13.6l-16.8,5.5c2.5,12.1,13.1,21.3,33.5,21.3ZM357.5,72.7h17v-17.8l11.2-12.3,16.8,30h20.2l-25.3-42.9,25.8-28.2h-22.6l-26,29.7V1.6h-17v71.1h0ZM279.8,72.7h17.2v-29.4h28.2v29.4h17.2V1.6h-17.2v27.6h-28.2V1.6h-17.2v71.1ZM424.4,72.7h18.3l5.4-15.7h27.9l5.1,15.7h18.9L473.9,1.6h-23.4l-26.1,71.1ZM31.8,29.7h-14.9v-14.6h14.9c6.3,0,10.1,2,10.1,7.2s-3.8,7.4-10.1,7.4ZM32.1,59.2h-15.2v-16.7h15.2c6.7,0,11.6,2.4,11.6,8.3s-4.9,8.3-11.6,8.3ZM0,72.7h34.7c15.2,0,26.2-7.4,26.2-19.7s-6.1-15.7-16.5-17.5c9.4-2.5,14.1-8.3,14.1-16.8S50.3,1.5,34.7,1.5H0v71.1Z"/>
</svg>