<svg width="20" height="20" viewBox="0 0 20 20" fill="none" xmlns="http://www.w3.org/2000/svg">
<g clip-path="url(#clip0_297_20)">
<mask id="mask0_297_20" style="mask-type:luminance" maskUnits="userSpaceOnUse" x="0" y="0" width="20" height="20">
<path d="M20 0H0V20H20V0Z" fill="white"/>
</mask>
<g mask="url(#mask0_297_20)">
<path d="M14.0419 0H5.95811C2.67279 0 0 2.67279 0 5.95811V14.0419C0 17.3272 2.67279 20 5.95811 20H14.0419C17.3272 20 20 17.3272 20 14.0419V5.95811C20 2.67279 17.3272 0 14.0419 0ZM17.988 14.0419C17.988 16.2212 16.2212 17.988 14.0419 17.988H5.95811C3.77875 17.988 2.012 16.2212 2.012 14.0419V5.95811C2.012 3.77871 3.77875 2.012 5.95811 2.012H14.0419C16.2212 2.012 17.988 3.77871 17.988 5.95811V14.0419Z" fill="white"/>
<path d="M10.0008 4.82739C7.14859 4.82739 4.82812 7.14787 4.82812 10.0001C4.82812 12.8523 7.14859 15.1728 10.0008 15.1728C12.8531 15.1728 15.1736 12.8523 15.1736 10.0001C15.1736 7.14783 12.8531 4.82739 10.0008 4.82739ZM10.0008 13.1608C8.2552 13.1608 6.84013 11.7457 6.84013 10.0001C6.84013 8.25448 8.25524 6.83939 10.0008 6.83939C11.7465 6.83939 13.1616 8.25448 13.1616 10.0001C13.1616 11.7457 11.7465 13.1608 10.0008 13.1608Z" fill="white"/>
<path d="M15.1847 6.10568C15.8693 6.10568 16.4242 5.55075 16.4242 4.8662C16.4242 4.18165 15.8693 3.62671 15.1847 3.62671C14.5002 3.62671 13.9453 4.18165 13.9453 4.8662C13.9453 5.55075 14.5002 6.10568 15.1847 6.10568Z" fill="white"/>
</g>
</g>
<defs>
<clipPath id="clip0_297_20">
<rect width="20" height="20" fill="white"/>
</clipPath>
</defs>
</svg>
