<?xml version="1.0" encoding="UTF-8"?>
<svg id="Capa_1" xmlns="http://www.w3.org/2000/svg" version="1.1" viewBox="0 0 1024 276.7">
  <!-- Generator: Adobe Illustrator 29.0.0, SVG Export Plug-In . SVG Version: 2.1.0 Build 186)  -->
  <defs>
    <style>
      .st0 {
        fill: #f5f3ef;
      }
    </style>
  </defs>
  <path class="st0" d="M140.8,258.9c-15.4,2.7-31.1,3.5-47.3,5.7L44.1,119.7v151.1C28.6,272.4,14.6,274.6,0,276.7V0h41.1l56.2,157V0h43.5v258.9h0ZM225.9,101.3c16.8,0,42.4-.8,57.8-.8v43.2c-19.2,0-41.6,0-57.8.8v64.3c25.4-1.6,50.8-3.8,76.5-4.6v41.6l-119.7,9.5V0h119.7v43.2h-76.5s0,58.1,0,58.1ZM463.2,43.2h-44.9v198.9c-14.6,0-29.2,0-43.2.5V43.2h-44.9V0h133s0,43.2,0,43.2ZM533.5,98.4h59.2v43.2h-59.2v98.1h-42.4V0h120.8v43.2h-78.4v55.1ZM682.1,201.9c24.6.5,49.5,2.4,73.5,3.8v42.7c-38.6-2.4-77.3-4.9-116.8-5.7V0h43.2v201.9h0ZM792.1,251.3c13.8.8,28.4,1.6,42.4,3.2V0h-42.4v251.3ZM1024,0l-54.9,131.6,54.9,145.1c-16.2-2.2-32.4-5.1-48.6-7.8l-31.1-80-31.6,73.5c-15.7-2.7-30.8-3.5-46.5-5.7l55.7-126.8L871.6,0h46.5l28.4,72.7L976.7,0h47.3Z"/>
</svg>