<?xml version="1.0" encoding="UTF-8"?>
<svg id="Capa_1" xmlns="http://www.w3.org/2000/svg" version="1.1" viewBox="0 0 800 800">
  <!-- Generator: Adobe Illustrator 29.0.0, SVG Export Plug-In . SVG Version: 2.1.0 Build 186)  -->
  <defs>
    <style>
      .st0 {
        fill: #06468e;
      }
    </style>
  </defs>
  <path class="st0" d="M733.3,404.2c0,184.1-149.2,333.3-333.3,333.3S66.7,588.3,66.7,404.2c0-184.1,149.2-333.3,333.3-333.3s333.3,149.2,333.3,333.3h0ZM502.2,469.9c0-7.5-1.3-15-3.9-22-2.6-6.8-6.3-13.1-10.9-18.7-4.8-5.7-10.4-10.5-16.8-14.4-6.6-4.1-13.9-7-21.5-8.8v-1.2c13.1-3.4,24.8-10.8,33.4-21.3,8.9-11,13.5-24.8,13.1-38.9.3-12.1-2.6-24-8.4-34.6-5.5-9.6-13-18-22-24.4-9.4-6.6-19.9-11.5-31-14.4-11.6-3.1-23.6-4.7-35.7-4.7-11.3,0-22.6,1.5-33.6,4.5-10.7,2.9-20.9,7.4-30.2,13.3-9.2,5.8-17.3,13.2-24,21.9-7,9.1-12.1,19.5-15.2,30.6l60.8,14c1.8-8.8,6.5-16.7,13.5-22.4,6.9-5.6,15.5-8.6,24.4-8.4,8.7-.1,17.2,2.7,24.2,7.9,7.1,5.4,11,13.9,10.5,22.7.8,11.1-5.1,21.5-15,26.5-4.8,2.6-10,4.3-15.4,5.1-5.9.9-11.9,1.4-17.9,1.4h-19.1v47.6h17.6c6.8,0,13.6.6,20.3,1.8,6.3,1,12.4,3,18.1,5.9,5.2,2.6,9.6,6.4,12.9,11.1,3.4,5.2,5.1,11.3,4.9,17.6.2,5.7-1.1,11.3-3.7,16.3-2.3,4.2-5.5,7.9-9.3,10.7-3.9,2.8-8.3,4.8-12.9,6.1-4.6,1.3-9.4,1.9-14.2,1.9-11.2.4-22.1-3.3-30.8-10.4-7.6-6.2-13.2-14.5-16-24l-60.8,16c6.1,23.4,21.1,43.5,41.9,56,10.1,6,21,10.4,32.4,13.1,11.9,2.9,24.2,4.3,36.4,4.3,12.7,0,25.4-1.8,37.6-5.3,12-3.3,23.3-8.7,33.3-16,9.9-7.2,18.1-16.5,24-27.2,6.3-12.1,9.5-25.5,9.1-39.2h0Z"/>
</svg>